<svg width="305" height="77" viewBox="0 0 305 77" fill="none" xmlns="http://www.w3.org/2000/svg">
<path d="M218.096 60.4458V32.6762H223.044V37.9776H223.094C223.33 36.16 224.087 34.7463 225.366 33.7365C226.679 32.693 228.396 32.1713 230.516 32.1713C233.276 32.1713 235.481 33.0464 237.131 34.7968C238.78 36.5471 239.605 38.9033 239.605 41.8654V60.4458H234.606V42.6732C234.606 40.6536 234.101 39.1053 233.091 38.0281C232.082 36.951 230.701 36.4124 228.951 36.4124C227.133 36.4124 225.703 36.9847 224.659 38.1291C223.616 39.2399 223.094 40.8051 223.094 42.8247V60.4458H218.096ZM248.37 69.534V32.6762H253.318V38.0281H253.369C253.638 36.2105 254.446 34.7799 255.792 33.7365C257.139 32.693 258.855 32.1713 260.942 32.1713C263.702 32.1713 265.907 33.1137 267.556 34.9987C269.206 36.85 270.03 39.3745 270.03 42.5723V50.4992C270.03 53.7306 269.206 56.2888 267.556 58.1737C265.907 60.025 263.702 60.9507 260.942 60.9507C258.889 60.9507 257.189 60.429 255.843 59.3855C254.496 58.342 253.672 56.9115 253.369 55.0938H253.268L253.369 61.5061V69.534H248.37ZM259.175 56.6085C261.026 56.6085 262.457 56.1373 263.467 55.1948C264.51 54.2187 265.032 52.6535 265.032 50.4992V42.6227C265.032 40.4685 264.51 38.9201 263.467 37.9776C262.457 37.0015 261.026 36.5134 259.175 36.5134C257.391 36.5134 255.977 37.0688 254.934 38.1796C253.89 39.2904 253.369 40.8556 253.369 42.8752V50.2468C253.369 52.2664 253.89 53.8316 254.934 54.9424C255.977 56.0531 257.391 56.6085 259.175 56.6085ZM277.079 60.4458V32.6762H281.321V36.4629H281.472C281.607 35.1838 282.078 34.1572 282.886 33.383C283.727 32.5752 284.788 32.1713 286.067 32.1713C287.312 32.1713 288.356 32.5415 289.197 33.282C290.039 34.0226 290.644 35.0155 291.015 36.261C291.217 34.9819 291.738 33.9889 292.58 33.282C293.421 32.5415 294.482 32.1713 295.761 32.1713C297.511 32.1713 298.925 32.8445 300.002 34.1909C301.079 35.5036 301.618 37.2203 301.618 39.3409V60.4458H297.074V39.3914C297.074 38.3479 296.804 37.5232 296.266 36.9173C295.761 36.2778 295.071 35.958 294.196 35.958C293.32 35.958 292.63 36.261 292.125 36.8669C291.621 37.4727 291.368 38.3142 291.368 39.3914V60.4458H287.329V39.3914C287.329 38.3479 287.076 37.5232 286.572 36.9173C286.067 36.2778 285.377 35.958 284.501 35.958C283.626 35.958 282.919 36.261 282.381 36.8669C281.876 37.4727 281.623 38.3142 281.623 39.3914V60.4458H277.079Z" fill="#0F172A"/>
<path d="M16.8034 61.1845C11.1863 61.1845 6.38976 58.3444 6.38976 51.1495V36.6967H1.1514V29.3756H6.70533V20.9816L15.2256 17.826V29.3756H22.1049V36.6967H15.2256V49.0668C15.2256 51.8438 16.614 53.2323 19.5803 53.2323C20.527 53.2323 21.4106 53.0429 22.1049 52.8536V60.4902C21.2844 60.7427 19.0123 61.1845 16.8034 61.1845ZM27.9083 60.2378V29.3756H36.6178V33.8566C38.1325 30.4485 40.9726 28.3658 44.8856 28.3658C45.5167 28.3658 46.779 28.492 47.1577 28.5552V37.5172C46.1479 37.2647 45.1381 37.2016 43.9389 37.2016C40.5939 37.2016 37.5014 39.4106 36.7441 42.3769V60.2378H27.9083ZM65.7173 61.1845C56.8184 61.1845 49.4973 55.2519 49.4973 44.5858C49.4973 34.8664 56.5028 28.3658 65.3386 28.3658C75.1211 28.3658 80.675 35.182 80.675 44.712C80.675 45.4694 80.6119 46.7948 80.5488 47.2997H58.7118C58.9011 51.5282 62.8141 53.8634 66.664 53.8634C70.8294 53.8634 74.3637 52.7274 78.403 50.0766V57.7133C75.5629 59.5436 71.9023 61.1845 65.7173 61.1845ZM58.9011 41.3671H71.7761C71.5868 38.4639 69.5672 35.6869 65.3386 35.6869C61.4887 35.6869 59.0904 38.5901 58.9011 41.3671ZM121.933 28.3658C127.739 28.3658 132.977 32.3419 132.977 39.663V60.2378H124.141V41.872C124.141 38.527 122.311 36.4443 119.345 36.4443C117.136 36.4443 115.369 37.7065 114.107 39.4737V39.663V60.2378H105.271V41.872C105.271 38.527 103.504 36.4443 100.537 36.4443C98.2021 36.4443 96.435 37.7696 95.1727 39.663V60.2378H86.3369V29.3756H95.0465V31.837C96.7505 29.8805 99.3382 28.3658 103.251 28.3658C106.849 28.3658 110.194 29.8805 112.15 32.7837C113.728 30.9534 116.82 28.3658 121.933 28.3658ZM154.791 61.1845C144.819 61.1845 138.003 53.9896 138.003 44.712C138.003 35.4976 144.819 28.3658 154.791 28.3658C164.763 28.3658 171.642 35.4976 171.642 44.712C171.642 53.9896 164.763 61.1845 154.791 61.1845ZM154.791 52.8536C159.083 52.8536 162.491 49.8242 162.491 44.712C162.491 39.7261 159.083 36.6336 154.791 36.6336C150.563 36.6336 147.154 39.7261 147.154 44.712C147.154 49.8242 150.563 52.8536 154.791 52.8536ZM177.308 60.2378V29.3756H186.018V33.8566C187.532 30.4485 190.372 28.3658 194.285 28.3658C194.917 28.3658 196.179 28.492 196.558 28.5552V37.5172C195.548 37.2647 194.538 37.2016 193.339 37.2016C189.994 37.2016 186.901 39.4106 186.144 42.3769V60.2378H177.308Z" fill="#0F172A"/>
</svg>
