<svg width="254" height="64" viewBox="0 0 254 64" fill="none" xmlns="http://www.w3.org/2000/svg">
<path d="M181.078 50.4443V27.3525H185.193V31.761H185.235C185.43 30.2495 186.06 29.0739 187.124 28.2342C188.215 27.3665 189.643 26.9327 191.406 26.9327C193.702 26.9327 195.535 27.6604 196.906 29.1159C198.278 30.5714 198.964 32.5307 198.964 34.9938V50.4443H194.807V35.6656C194.807 33.9862 194.387 32.6986 193.548 31.8029C192.708 30.9073 191.56 30.4594 190.105 30.4594C188.593 30.4594 187.404 30.9352 186.536 31.8869C185.668 32.8106 185.235 34.1121 185.235 35.7915V50.4443H181.078ZM206.253 58.0017V27.3525H210.367V31.8029H210.409C210.633 30.2915 211.305 29.1019 212.424 28.2342C213.544 27.3665 214.972 26.9327 216.707 26.9327C219.002 26.9327 220.835 27.7164 222.207 29.2838C223.579 30.8233 224.264 32.9225 224.264 35.5816V42.1733C224.264 44.8603 223.579 46.9876 222.207 48.555C220.835 50.0945 219.002 50.8642 216.707 50.8642C215 50.8642 213.586 50.4303 212.466 49.5626C211.347 48.695 210.661 47.5054 210.409 45.9939H210.325L210.409 51.326V58.0017H206.253ZM215.237 47.2535C216.777 47.2535 217.967 46.8616 218.806 46.0779C219.674 45.2662 220.108 43.9646 220.108 42.1733V35.6236C220.108 33.8322 219.674 32.5447 218.806 31.761C217.967 30.9492 216.777 30.5434 215.237 30.5434C213.754 30.5434 212.578 31.0052 211.711 31.9289C210.843 32.8526 210.409 34.1541 210.409 35.8335V41.9633C210.409 43.6427 210.843 44.9443 211.711 45.868C212.578 46.7916 213.754 47.2535 215.237 47.2535ZM230.126 50.4443V27.3525H233.653V30.5014H233.779C233.89 29.4378 234.282 28.5841 234.954 27.9403C235.654 27.2686 236.536 26.9327 237.599 26.9327C238.635 26.9327 239.502 27.2406 240.202 27.8563C240.902 28.4721 241.406 29.2978 241.714 30.3335C241.882 29.2698 242.315 28.4441 243.015 27.8563C243.715 27.2406 244.597 26.9327 245.66 26.9327C247.116 26.9327 248.291 27.4925 249.187 28.6121C250.083 29.7037 250.531 31.1312 250.531 32.8946V50.4443H246.752V32.9365C246.752 32.0688 246.528 31.3831 246.08 30.8793C245.66 30.3475 245.086 30.0816 244.359 30.0816C243.631 30.0816 243.057 30.3335 242.637 30.8373C242.218 31.3411 242.008 32.0409 242.008 32.9365V50.4443H238.649V32.9365C238.649 32.0688 238.439 31.3831 238.019 30.8793C237.599 30.3475 237.025 30.0816 236.298 30.0816C235.57 30.0816 234.982 30.3335 234.534 30.8373C234.114 31.3411 233.904 32.0409 233.904 32.9365V50.4443H230.126Z" fill="#ffffff"/>
<path d="M13.6935 51.4061C9.02265 51.4061 5.03406 49.0445 5.03406 43.0616V31.0433H0.678108V24.9555H5.29647V17.9755L12.3815 15.3514V24.9555H18.1019V31.0433H12.3815V41.3297C12.3815 43.6389 13.5361 44.7935 16.0027 44.7935C16.7899 44.7935 17.5246 44.636 18.1019 44.4786V50.8288C17.4197 51.0387 15.5303 51.4061 13.6935 51.4061ZM22.9278 50.6189V24.9555H30.1702V28.6817C31.4298 25.8477 33.7914 24.1158 37.0453 24.1158C37.5701 24.1158 38.6197 24.2207 38.9346 24.2732V31.7256C38.0949 31.5157 37.2552 31.4632 36.258 31.4632C33.4765 31.4632 30.9049 33.3 30.2752 35.7667V50.6189H22.9278ZM54.3678 51.4061C46.9679 51.4061 40.8801 46.4729 40.8801 37.6035C40.8801 29.5214 46.7055 24.1158 54.0529 24.1158C62.1875 24.1158 66.8059 29.7838 66.8059 37.7085C66.8059 38.3382 66.7534 39.4404 66.7009 39.8602H48.5424C48.6998 43.3765 51.9537 45.3183 55.155 45.3183C58.6188 45.3183 61.5578 44.3736 64.9166 42.1694V48.5196C62.5549 50.0416 59.511 51.4061 54.3678 51.4061ZM48.6998 34.927H59.406C59.2486 32.5128 57.5692 30.2036 54.0529 30.2036C50.8516 30.2036 48.8573 32.6178 48.6998 34.927ZM101.114 24.1158C105.942 24.1158 110.298 27.4221 110.298 33.51V50.6189H102.95V35.3468C102.95 32.5653 101.428 30.8334 98.9618 30.8334C97.125 30.8334 95.6555 31.883 94.6059 33.3525V33.51V50.6189H87.2585V35.3468C87.2585 32.5653 85.789 30.8334 83.3224 30.8334C81.3806 30.8334 79.9111 31.9355 78.8615 33.51V50.6189H71.5141V24.9555H78.7565V27.0023C80.1735 25.3753 82.3252 24.1158 85.5791 24.1158C88.5705 24.1158 91.352 25.3753 92.979 27.7895C94.291 26.2675 96.8626 24.1158 101.114 24.1158ZM128.437 51.4061C120.145 51.4061 114.477 45.4232 114.477 37.7085C114.477 30.0462 120.145 24.1158 128.437 24.1158C136.729 24.1158 142.45 30.0462 142.45 37.7085C142.45 45.4232 136.729 51.4061 128.437 51.4061ZM128.437 44.4786C132.006 44.4786 134.84 41.9595 134.84 37.7085C134.84 33.5624 132.006 30.9909 128.437 30.9909C124.921 30.9909 122.087 33.5624 122.087 37.7085C122.087 41.9595 124.921 44.4786 128.437 44.4786ZM147.161 50.6189V24.9555H154.404V28.6817C155.663 25.8477 158.025 24.1158 161.279 24.1158C161.803 24.1158 162.853 24.2207 163.168 24.2732V31.7256C162.328 31.5157 161.489 31.4632 160.491 31.4632C157.71 31.4632 155.138 33.3 154.508 35.7667V50.6189H147.161Z" fill="#ffffff"/>
</svg>
